<?xml version="1.0" encoding="UTF-8"?>
<svg id="Layer_2" data-name="Layer 2" xmlns="http://www.w3.org/2000/svg" xmlns:xlink="http://www.w3.org/1999/xlink" viewBox="0 0 530.16 256.58">
  <defs>
    <style>
      .cls-1 {
        stroke: #1bb7a3;
        stroke-miterlimit: 10;
        stroke-width: 3.01px;
      }

      .cls-1, .cls-2 {
        fill: #1bb7a3;
      }

      .cls-3 {
        fill: #1e4281;
      }

      .cls-4 {
        fill: #fff;
      }

      .cls-5 {
        fill: #1f4181;
      }

      .cls-6 {
        fill: url(#linear-gradient);
      }
    </style>
    <linearGradient id="linear-gradient" x1="461" y1="216.77" x2="461" y2="39.81" gradientUnits="userSpaceOnUse">
      <stop offset="0" stop-color="#1bb7a3"/>
      <stop offset="1" stop-color="#1f4181"/>
    </linearGradient>
  </defs>
  <g id="Layer_1-2" data-name="Layer 1">
    <g id="Build">
      <g id="Symbol">
        <path class="cls-3" d="M424.44,256.58l68.26-17.45c21.52-5.5,36.58-24.89,36.58-47.1V31.7l-68.26,17.45c-21.52,5.5-36.58,24.89-36.58,47.1v160.32Z"/>
        <path class="cls-2" d="M392.73,224.87l68.26-17.45c21.52-5.5,36.58-24.89,36.58-47.1V0l-68.26,17.45c-21.52,5.5-36.58,24.89-36.58,47.1v160.32Z"/>
        <path class="cls-6" d="M497.57,39.81v120.51c0,22.22-15.06,41.6-36.58,47.1l-36.56,9.35v-120.51c0-22.21,15.06-41.6,36.58-47.1l36.55-9.35Z"/>
        <circle class="cls-4" cx="482.86" cy="223.81" r="9.72"/>
      </g>
      <g id="Text">
        <g>
          <path class="cls-1" d="M8.85,114.03h-3.19c-.52,0-.91-.15-1.18-.44-.26-.3-.36-.69-.29-1.18l7.79-70.37c.1-.98.64-1.46,1.62-1.46h4.44c.87,0,1.46.4,1.78,1.2l24.83,63.2,24.88-63.2c.31-.8.91-1.2,1.78-1.2h4.39c1.01,0,1.57.49,1.67,1.46l7.68,70.37c.07.49-.03.88-.29,1.18-.26.3-.64.44-1.12.44h-3.19c-.98,0-1.52-.49-1.62-1.46l-6.43-62.26-24.73,62.47c-.31.84-.91,1.25-1.78,1.25h-2.51c-.87,0-1.46-.42-1.78-1.25l-24.62-62.47-6.53,62.26c-.1.98-.65,1.46-1.62,1.46Z"/>
          <path class="cls-1" d="M111.79,111.08c-4.88-2.88-8.77-6.78-11.66-11.71-2.89-4.93-4.34-10.34-4.34-16.23s1.45-11.37,4.34-16.34c2.89-4.97,6.79-8.89,11.68-11.76,4.9-2.88,10.2-4.31,15.92-4.31s11.01,1.44,15.89,4.31c4.88,2.88,8.76,6.8,11.66,11.76,2.89,4.97,4.34,10.41,4.34,16.34s-1.45,11.3-4.34,16.23c-2.89,4.93-6.79,8.84-11.68,11.71-4.9,2.88-10.2,4.31-15.92,4.31s-11.01-1.44-15.89-4.31ZM140.7,106.08c3.97-2.33,7.14-5.52,9.49-9.57,2.35-4.04,3.53-8.52,3.53-13.44s-1.18-9.36-3.53-13.44c-2.35-4.08-5.52-7.3-9.49-9.67-3.97-2.37-8.28-3.55-12.91-3.55s-8.95,1.19-12.94,3.55c-3.99,2.37-7.17,5.59-9.54,9.67-2.37,4.08-3.55,8.56-3.55,13.44s1.18,9.39,3.53,13.44c2.35,4.04,5.52,7.23,9.51,9.57,3.99,2.34,8.32,3.5,12.99,3.5s8.94-1.17,12.91-3.5Z"/>
          <path class="cls-1" d="M219.74,55.01c4.6,2.86,8.23,6.76,10.9,11.71,2.67,4.95,4,10.39,4,16.31s-1.33,11.35-4,16.28c-2.67,4.93-6.3,8.83-10.9,11.68-4.6,2.86-9.67,4.29-15.21,4.29-3.69,0-7.15-.67-10.38-2.01-3.22-1.34-6.06-3.2-8.5-5.57-2.44-2.37-4.41-5.12-5.91-8.26l-.05,13.07c0,.49-.14.86-.42,1.12-.28.26-.66.39-1.15.39h-2.67c-1.01,0-1.52-.52-1.52-1.57V33.83c0-1.01.5-1.52,1.52-1.52h3.03c1.01,0,1.52.51,1.52,1.52v32.15c2.33-4.63,5.65-8.34,9.93-11.11s9.15-4.16,14.59-4.16,10.61,1.43,15.21,4.29ZM216.81,106.06c3.69-2.32,6.6-5.49,8.73-9.51,2.13-4.03,3.19-8.51,3.19-13.46s-1.06-9.45-3.19-13.51c-2.13-4.06-5.04-7.27-8.76-9.62s-7.83-3.53-12.36-3.53-8.79,1.18-12.57,3.53c-3.78,2.35-6.77,5.57-8.97,9.65-2.2,4.08-3.29,8.57-3.29,13.49s1.09,9.44,3.27,13.46c2.18,4.03,5.17,7.2,8.97,9.51,3.8,2.32,8.02,3.48,12.65,3.48s8.64-1.16,12.34-3.48Z"/>
          <path class="cls-1" d="M249.38,38.91c-.28-.28-.42-.66-.42-1.15v-4.03c0-.49.14-.87.42-1.15.28-.28.66-.42,1.15-.42h3.87c.49,0,.87.14,1.15.42.28.28.42.66.42,1.15v4.03c0,.49-.14.87-.42,1.15-.28.28-.66.42-1.15.42h-3.87c-.49,0-.87-.14-1.15-.42ZM255.08,113.61c-.28.28-.66.42-1.15.42h-2.82c-1.01,0-1.52-.52-1.52-1.57v-59.13c0-1.01.5-1.52,1.52-1.52h2.82c1.05,0,1.57.51,1.57,1.52v59.13c0,.49-.14.87-.42,1.15Z"/>
          <path class="cls-1" d="M280.17,113.61c-.28.28-.66.42-1.15.42h-2.82c-1.01,0-1.52-.52-1.52-1.57V33.83c0-1.01.5-1.52,1.52-1.52h2.82c1.05,0,1.57.51,1.57,1.52v78.63c0,.49-.14.87-.42,1.15Z"/>
          <path class="cls-1" d="M310.21,111.08c-4.72-2.88-8.46-6.78-11.21-11.71-2.75-4.93-4.13-10.34-4.13-16.23s1.27-11.37,3.82-16.34c2.54-4.97,6.03-8.89,10.46-11.76,4.43-2.88,9.34-4.31,14.74-4.31,5.78,0,10.84,1.41,15.16,4.23,4.32,2.82,7.64,6.68,9.96,11.58,2.32,4.9,3.48,10.41,3.48,16.55v.99c-.04.84-.56,1.25-1.57,1.25h-50.08c.35,4.67,1.68,8.86,4,12.57,2.32,3.71,5.33,6.61,9.04,8.7s7.76,3.14,12.15,3.14c3.62,0,6.99-.6,10.09-1.8,3.1-1.2,5.91-2.9,8.42-5.1.38-.31.73-.47,1.05-.47.42,0,.78.23,1.1.68l1.41,1.83c.24.35.37.7.37,1.05,0,.42-.19.8-.58,1.15-3,2.65-6.36,4.7-10.09,6.14-3.73,1.45-7.74,2.17-12.02,2.17-5.65,0-10.83-1.44-15.55-4.31ZM343.14,67.63c-1.9-3.57-4.49-6.36-7.76-8.36-3.28-2-7.08-3.01-11.4-3.01-4.01,0-7.71,1.02-11.11,3.06-3.4,2.04-6.15,4.86-8.26,8.47-2.11,3.61-3.35,7.68-3.74,12.21h45.64c-.35-4.67-1.47-8.79-3.37-12.36Z"/>
          <path class="cls-1" d="M219.79,136.27c4.6,2.86,8.23,6.76,10.9,11.71,2.67,4.95,4,10.39,4,16.31s-1.33,11.35-4,16.28c-2.67,4.93-6.3,8.83-10.9,11.68-4.6,2.86-9.67,4.29-15.21,4.29s-10.32-1.4-14.66-4.21c-4.34-2.81-7.68-6.54-10.01-11.21v31.21c0,1.01-.52,1.52-1.57,1.52h-2.82c-1.01,0-1.52-.51-1.52-1.52v-77.74c0-1.01.5-1.52,1.52-1.52h2.67c1.05,0,1.57.51,1.57,1.52l.05,12.86c2.37-4.71,5.72-8.46,10.04-11.27,4.32-2.81,9.24-4.21,14.74-4.21s10.61,1.43,15.21,4.29ZM216.86,187.32c3.69-2.32,6.6-5.49,8.73-9.51,2.13-4.03,3.19-8.51,3.19-13.46s-1.06-9.45-3.19-13.51c-2.13-4.06-5.04-7.27-8.76-9.62s-7.83-3.53-12.36-3.53-8.79,1.18-12.57,3.53c-3.78,2.35-6.77,5.57-8.97,9.65-2.2,4.08-3.29,8.57-3.29,13.49s1.09,9.44,3.27,13.46c2.18,4.03,5.17,7.2,8.97,9.51,3.8,2.32,8.02,3.48,12.65,3.48s8.64-1.16,12.34-3.48Z"/>
          <path class="cls-1" d="M286.29,135.49c.59.31.89.73.89,1.25,0,.21-.09.49-.26.84l-1.2,2.3c-.31.56-.71.84-1.2.84-.35,0-.65-.09-.89-.26-3.56-1.88-6.99-2.82-10.3-2.82-3.1,0-6.07.92-8.91,2.77-2.84,1.85-5.13,4.47-6.87,7.87-1.74,3.4-2.61,7.29-2.61,11.68v33.77c0,.49-.14.87-.42,1.15s-.66.42-1.15.42h-2.82c-1.01,0-1.52-.52-1.52-1.57v-59.13c0-1.01.5-1.52,1.52-1.52h2.46c1.05,0,1.57.51,1.57,1.52l.1,12.08c.87-2.61,2.23-5.04,4.08-7.29,1.85-2.25,4.07-4.04,6.67-5.38,2.6-1.34,5.41-2.01,8.44-2.01,3.97,0,8.12,1.17,12.44,3.5Z"/>
          <path class="cls-1" d="M304.64,192.34c-4.88-2.88-8.77-6.78-11.66-11.71-2.89-4.93-4.34-10.34-4.34-16.23s1.45-11.37,4.34-16.34c2.89-4.97,6.79-8.89,11.68-11.76,4.9-2.88,10.2-4.31,15.92-4.31s11.01,1.44,15.89,4.31c4.88,2.88,8.77,6.8,11.66,11.76,2.89,4.97,4.34,10.41,4.34,16.34s-1.45,11.3-4.34,16.23c-2.89,4.93-6.79,8.83-11.68,11.71-4.9,2.88-10.2,4.31-15.92,4.31s-11.01-1.44-15.89-4.31ZM333.55,187.35c3.97-2.33,7.14-5.52,9.49-9.57,2.35-4.04,3.53-8.52,3.53-13.44s-1.18-9.36-3.53-13.44c-2.35-4.08-5.52-7.3-9.49-9.67-3.97-2.37-8.28-3.55-12.91-3.55s-8.95,1.19-12.94,3.55c-3.99,2.37-7.17,5.59-9.54,9.67-2.37,4.08-3.55,8.56-3.55,13.44s1.18,9.39,3.53,13.44c2.35,4.04,5.52,7.23,9.51,9.57,3.99,2.34,8.32,3.5,12.99,3.5s8.94-1.17,12.91-3.5Z"/>
        </g>
        <g>
          <path class="cls-5" d="M1.06,245.46H.34c-.12,0-.21-.03-.27-.1-.06-.07-.08-.16-.07-.27l1.77-16.02c.02-.22.15-.33.37-.33h1.01c.2,0,.33.09.4.27l5.65,14.39,5.66-14.39c.07-.18.21-.27.4-.27h1c.23,0,.36.11.38.33l1.75,16.02c.02.11,0,.2-.07.27-.06.07-.14.1-.26.1h-.73c-.22,0-.34-.11-.37-.33l-1.46-14.17-5.63,14.22c-.07.19-.21.29-.4.29h-.57c-.2,0-.33-.1-.4-.29l-5.6-14.22-1.49,14.17c-.02.22-.15.33-.37.33Z"/>
          <path class="cls-5" d="M24.49,244.79c-1.11-.65-2-1.54-2.65-2.67s-.99-2.35-.99-3.69.33-2.59.99-3.72,1.54-2.02,2.66-2.68c1.11-.65,2.32-.98,3.62-.98s2.51.33,3.62.98c1.11.65,2,1.55,2.65,2.68s.99,2.37.99,3.72-.33,2.57-.99,3.69-1.54,2.01-2.66,2.67c-1.11.65-2.32.98-3.62.98s-2.51-.33-3.62-.98ZM31.07,243.65c.9-.53,1.62-1.26,2.16-2.18.54-.92.8-1.94.8-3.06s-.27-2.13-.8-3.06c-.54-.93-1.26-1.66-2.16-2.2-.9-.54-1.88-.81-2.94-.81s-2.04.27-2.95.81c-.91.54-1.63,1.27-2.17,2.2-.54.93-.81,1.95-.81,3.06s.27,2.14.8,3.06c.54.92,1.26,1.65,2.17,2.18.91.53,1.89.8,2.96.8s2.03-.27,2.94-.8Z"/>
          <path class="cls-5" d="M49.07,232.03c1.05.65,1.87,1.54,2.48,2.67.61,1.13.91,2.36.91,3.71s-.3,2.58-.91,3.71c-.61,1.12-1.43,2.01-2.48,2.66s-2.2.98-3.46.98c-.84,0-1.63-.15-2.36-.46-.73-.31-1.38-.73-1.93-1.27-.56-.54-1-1.17-1.34-1.88v2.97c-.01.11-.04.2-.11.26-.06.06-.15.09-.26.09h-.61c-.23,0-.35-.12-.35-.36v-17.9c0-.23.12-.34.35-.34h.69c.23,0,.34.12.34.34v7.32c.53-1.05,1.29-1.9,2.26-2.53.98-.63,2.08-.95,3.32-.95s2.42.33,3.46.98ZM48.4,243.65c.84-.53,1.5-1.25,1.99-2.17.48-.92.73-1.94.73-3.06s-.24-2.15-.73-3.08c-.48-.92-1.15-1.65-1.99-2.19-.84-.54-1.78-.8-2.81-.8s-2,.27-2.86.8c-.86.54-1.54,1.27-2.04,2.2-.5.93-.75,1.95-.75,3.07s.25,2.15.74,3.06c.5.92,1.18,1.64,2.04,2.17s1.82.79,2.88.79,1.97-.26,2.81-.79Z"/>
          <path class="cls-5" d="M55.81,228.36c-.06-.06-.1-.15-.1-.26v-.92c0-.11.03-.2.1-.26.06-.06.15-.09.26-.09h.88c.11,0,.2.03.26.09.06.06.1.15.1.26v.92c0,.11-.03.2-.1.26-.06.06-.15.1-.26.1h-.88c-.11,0-.2-.03-.26-.1ZM57.11,245.37c-.06.06-.15.1-.26.1h-.64c-.23,0-.35-.12-.35-.36v-13.46c0-.23.12-.35.35-.35h.64c.24,0,.36.12.36.35v13.46c0,.11-.03.2-.1.26Z"/>
          <path class="cls-5" d="M62.82,245.37c-.06.06-.15.1-.26.1h-.64c-.23,0-.35-.12-.35-.36v-17.9c0-.23.12-.34.35-.34h.64c.24,0,.36.12.36.34v17.9c0,.11-.03.2-.1.26Z"/>
          <path class="cls-5" d="M69.66,244.79c-1.07-.65-1.93-1.54-2.55-2.67-.63-1.12-.94-2.35-.94-3.69s.29-2.59.87-3.72,1.37-2.02,2.38-2.68c1.01-.65,2.13-.98,3.36-.98,1.32,0,2.47.32,3.45.96s1.74,1.52,2.27,2.64c.53,1.11.79,2.37.79,3.77v.23c0,.19-.13.29-.36.29h-11.4c.08,1.06.38,2.02.91,2.86.53.84,1.21,1.51,2.06,1.98.84.48,1.77.71,2.77.71.82,0,1.59-.14,2.3-.41.71-.27,1.34-.66,1.92-1.16.09-.07.17-.11.24-.11.1,0,.18.05.25.15l.32.42c.06.08.08.16.08.24,0,.1-.04.18-.13.26-.68.6-1.45,1.07-2.3,1.4-.85.33-1.76.49-2.74.49-1.28,0-2.46-.33-3.54-.98ZM77.15,234.9c-.43-.81-1.02-1.45-1.77-1.9-.75-.46-1.61-.68-2.59-.68-.91,0-1.76.23-2.53.7-.77.46-1.4,1.11-1.88,1.93-.48.82-.76,1.75-.85,2.78h10.39c-.08-1.06-.34-2-.77-2.81Z"/>
          <path class="cls-5" d="M100.46,231.3h.61c.24,0,.36.12.36.35v13.46c0,.11-.03.2-.1.26-.06.06-.15.1-.26.1h-.61c-.11,0-.2-.03-.26-.09-.06-.06-.09-.14-.09-.26v-2.97c-.35.71-.8,1.34-1.36,1.88-.56.54-1.21.96-1.94,1.27-.73.31-1.52.46-2.35.46-1.27,0-2.43-.33-3.47-.98s-1.87-1.54-2.48-2.66c-.61-1.12-.91-2.36-.91-3.71s.3-2.59.91-3.71c.61-1.13,1.44-2.01,2.49-2.67,1.05-.65,2.21-.98,3.47-.98s2.37.33,3.36.98,1.74,1.51,2.27,2.58v-2.96c.03-.23.15-.35.37-.35ZM97.34,243.65c.86-.53,1.55-1.25,2.05-2.17.5-.92.75-1.94.75-3.06s-.25-2.14-.75-3.07c-.5-.93-1.18-1.66-2.05-2.2-.86-.54-1.82-.8-2.87-.8s-1.97.27-2.81.8c-.84.54-1.5,1.27-1.99,2.19-.48.92-.73,1.95-.73,3.08s.24,2.15.73,3.06c.48.92,1.14,1.64,1.98,2.17.84.53,1.77.79,2.8.79s2.01-.26,2.88-.79Z"/>
          <path class="cls-5" d="M108.31,244.79c-1.12-.65-2-1.54-2.66-2.67s-.98-2.36-.98-3.71.33-2.59.98-3.71c.65-1.13,1.54-2.02,2.66-2.67,1.12-.65,2.35-.98,3.69-.98.95,0,1.85.16,2.7.49.84.33,1.6.79,2.25,1.38.09.07.13.15.13.25,0,.08-.03.16-.1.25l-.31.4c-.08.1-.17.15-.26.15-.07,0-.15-.04-.24-.11-.56-.51-1.2-.9-1.9-1.17-.7-.27-1.45-.41-2.23-.41-1.09,0-2.09.27-3.02.82-.92.54-1.66,1.28-2.2,2.22s-.82,1.97-.82,3.09.27,2.15.82,3.08,1.28,1.66,2.2,2.2c.92.54,1.93.8,3.02.8.79,0,1.54-.13,2.24-.4.7-.27,1.34-.65,1.91-1.15.07-.07.15-.11.23-.11.09,0,.17.05.26.15l.31.4c.06.09.1.17.1.24,0,.08-.04.15-.11.23-.66.61-1.41,1.08-2.27,1.42-.85.33-1.76.5-2.72.5-1.34,0-2.57-.33-3.69-.98Z"/>
          <path class="cls-5" d="M122.55,244.79c-1.12-.65-2-1.54-2.66-2.67s-.98-2.36-.98-3.71.33-2.59.98-3.71c.65-1.13,1.54-2.02,2.66-2.67,1.12-.65,2.35-.98,3.69-.98.95,0,1.85.16,2.7.49.84.33,1.6.79,2.25,1.38.09.07.13.15.13.25,0,.08-.03.16-.1.25l-.31.4c-.08.1-.17.15-.26.15-.07,0-.15-.04-.24-.11-.56-.51-1.2-.9-1.9-1.17-.7-.27-1.45-.41-2.23-.41-1.09,0-2.09.27-3.02.82-.92.54-1.66,1.28-2.2,2.22s-.82,1.97-.82,3.09.27,2.15.82,3.08,1.28,1.66,2.2,2.2c.92.54,1.93.8,3.02.8.79,0,1.54-.13,2.24-.4.7-.27,1.34-.65,1.91-1.15.07-.07.15-.11.23-.11.09,0,.17.05.26.15l.31.4c.06.09.1.17.1.24,0,.08-.04.15-.11.23-.66.61-1.41,1.08-2.27,1.42-.85.33-1.76.5-2.72.5-1.34,0-2.57-.33-3.69-.98Z"/>
          <path class="cls-5" d="M136.65,244.79c-1.07-.65-1.93-1.54-2.55-2.67-.63-1.12-.94-2.35-.94-3.69s.29-2.59.87-3.72,1.37-2.02,2.38-2.68c1.01-.65,2.13-.98,3.36-.98,1.32,0,2.47.32,3.45.96s1.74,1.52,2.27,2.64c.53,1.11.79,2.37.79,3.77v.23c0,.19-.13.29-.36.29h-11.4c.08,1.06.38,2.02.91,2.86.53.84,1.21,1.51,2.06,1.98.84.48,1.77.71,2.77.71.82,0,1.59-.14,2.3-.41.71-.27,1.34-.66,1.92-1.16.09-.07.17-.11.24-.11.1,0,.18.05.25.15l.32.42c.06.08.08.16.08.24,0,.1-.04.18-.13.26-.68.6-1.45,1.07-2.3,1.4-.85.33-1.76.49-2.74.49-1.28,0-2.46-.33-3.54-.98ZM144.15,234.9c-.43-.81-1.02-1.45-1.77-1.9-.75-.46-1.61-.68-2.59-.68-.91,0-1.76.23-2.53.7-.77.46-1.4,1.11-1.88,1.93-.48.82-.76,1.75-.85,2.78h10.39c-.08-1.06-.34-2-.77-2.81Z"/>
          <path class="cls-5" d="M150.69,245.24c-.91-.35-1.69-.81-2.35-1.37-.09-.09-.13-.17-.13-.25,0-.07.03-.15.1-.24l.3-.38c.09-.09.17-.14.25-.14.07,0,.15.03.24.1.57.44,1.25.82,2.03,1.11.79.3,1.57.45,2.34.45.66,0,1.25-.12,1.78-.37.53-.25.94-.59,1.23-1.02.29-.44.44-.93.44-1.48s-.15-1-.46-1.35c-.31-.35-.72-.64-1.25-.86s-1.24-.46-2.15-.7c-2.78-.75-4.18-2.08-4.18-4.01,0-.63.16-1.23.49-1.79.33-.56.82-1.01,1.49-1.36.67-.35,1.48-.52,2.44-.52.73,0,1.47.13,2.22.39.75.26,1.4.62,1.95,1.08.09.06.13.14.13.24,0,.09-.04.17-.12.25l-.37.39c-.09.09-.17.13-.25.13-.07,0-.15-.03-.24-.1-.45-.34-.97-.61-1.56-.82-.59-.21-1.19-.31-1.8-.31-.67,0-1.23.11-1.69.34-.46.23-.81.52-1.04.89s-.34.77-.34,1.21c0,.66.26,1.21.79,1.65.53.44,1.41.83,2.65,1.18.94.26,1.74.55,2.39.86.65.31,1.17.72,1.58,1.24.41.52.61,1.17.61,1.96s-.2,1.45-.59,2.08c-.39.63-.95,1.13-1.67,1.51-.72.37-1.54.56-2.46.56-.97,0-1.91-.18-2.81-.53Z"/>
          <path class="cls-5" d="M162.38,245.24c-.91-.35-1.69-.81-2.35-1.37-.09-.09-.13-.17-.13-.25,0-.07.03-.15.1-.24l.3-.38c.09-.09.17-.14.25-.14.07,0,.15.03.24.1.57.44,1.25.82,2.03,1.11.79.3,1.57.45,2.34.45.66,0,1.25-.12,1.78-.37.53-.25.94-.59,1.23-1.02.29-.44.44-.93.44-1.48s-.15-1-.46-1.35c-.31-.35-.72-.64-1.25-.86s-1.24-.46-2.15-.7c-2.78-.75-4.18-2.08-4.18-4.01,0-.63.16-1.23.49-1.79.33-.56.82-1.01,1.49-1.36.67-.35,1.48-.52,2.44-.52.73,0,1.47.13,2.22.39.75.26,1.4.62,1.95,1.08.09.06.13.14.13.24,0,.09-.04.17-.12.25l-.37.39c-.09.09-.17.13-.25.13-.07,0-.15-.03-.24-.1-.45-.34-.97-.61-1.56-.82-.59-.21-1.19-.31-1.8-.31-.67,0-1.23.11-1.69.34-.46.23-.81.52-1.04.89s-.34.77-.34,1.21c0,.66.26,1.21.79,1.65.53.44,1.41.83,2.65,1.18.94.26,1.74.55,2.39.86.65.31,1.17.72,1.58,1.24.41.52.61,1.17.61,1.96s-.2,1.45-.59,2.08c-.39.63-.95,1.13-1.67,1.51-.72.37-1.54.56-2.46.56-.97,0-1.91-.18-2.81-.53Z"/>
          <path class="cls-5" d="M175.53,244.79c-1.11-.65-2-1.54-2.65-2.67s-.99-2.35-.99-3.69.33-2.59.99-3.72,1.54-2.02,2.66-2.68c1.11-.65,2.32-.98,3.62-.98s2.51.33,3.62.98c1.11.65,2,1.55,2.65,2.68s.99,2.37.99,3.72-.33,2.57-.99,3.69-1.54,2.01-2.66,2.67c-1.11.65-2.32.98-3.62.98s-2.51-.33-3.62-.98ZM182.11,243.65c.9-.53,1.62-1.26,2.16-2.18.54-.92.8-1.94.8-3.06s-.27-2.13-.8-3.06c-.54-.93-1.26-1.66-2.16-2.2-.9-.54-1.88-.81-2.94-.81s-2.04.27-2.95.81c-.91.54-1.63,1.27-2.17,2.2-.54.93-.81,1.95-.81,3.06s.27,2.14.8,3.06c.54.92,1.26,1.65,2.17,2.18.91.53,1.89.8,2.96.8s2.03-.27,2.94-.8Z"/>
          <path class="cls-5" d="M198.16,231.85c.13.07.2.17.2.29,0,.05-.02.11-.06.19l-.27.52c-.07.13-.16.19-.27.19-.08,0-.15-.02-.2-.06-.81-.43-1.59-.64-2.34-.64-.71,0-1.38.21-2.03.63-.65.42-1.17,1.02-1.56,1.79-.4.77-.6,1.66-.6,2.66v7.69c0,.11-.03.2-.1.26-.06.06-.15.1-.26.1h-.64c-.23,0-.35-.12-.35-.36v-13.46c0-.23.12-.35.35-.35h.56c.24,0,.36.12.36.35l.02,2.75c.2-.59.51-1.15.93-1.66.42-.51.93-.92,1.52-1.23.59-.31,1.23-.46,1.92-.46.9,0,1.85.27,2.83.8Z"/>
          <path class="cls-5" d="M201.04,228.36c-.06-.06-.1-.15-.1-.26v-.92c0-.11.03-.2.1-.26.06-.06.15-.09.26-.09h.88c.11,0,.2.03.26.09.06.06.1.15.1.26v.92c0,.11-.03.2-.1.26-.06.06-.15.1-.26.1h-.88c-.11,0-.2-.03-.26-.1ZM202.34,245.37c-.06.06-.15.1-.26.1h-.64c-.23,0-.35-.12-.35-.36v-13.46c0-.23.12-.35.35-.35h.64c.24,0,.36.12.36.35v13.46c0,.11-.03.2-.1.26Z"/>
          <path class="cls-5" d="M209.28,244.79c-1.07-.65-1.93-1.54-2.55-2.67-.63-1.12-.94-2.35-.94-3.69s.29-2.59.87-3.72,1.37-2.02,2.38-2.68c1.01-.65,2.13-.98,3.36-.98,1.32,0,2.47.32,3.45.96s1.74,1.52,2.27,2.64c.53,1.11.79,2.37.79,3.77v.23c0,.19-.13.29-.36.29h-11.4c.08,1.06.38,2.02.91,2.86.53.84,1.21,1.51,2.06,1.98.84.48,1.77.71,2.77.71.82,0,1.59-.14,2.3-.41.71-.27,1.34-.66,1.92-1.16.09-.07.17-.11.24-.11.1,0,.18.05.25.15l.32.42c.06.08.08.16.08.24,0,.1-.04.18-.13.26-.68.6-1.45,1.07-2.3,1.4-.85.33-1.76.49-2.74.49-1.28,0-2.46-.33-3.54-.98ZM216.78,234.9c-.43-.81-1.02-1.45-1.77-1.9-.75-.46-1.61-.68-2.59-.68-.91,0-1.76.23-2.53.7-.77.46-1.4,1.11-1.88,1.93-.48.82-.76,1.75-.85,2.78h10.39c-.08-1.06-.34-2-.77-2.81Z"/>
          <path class="cls-5" d="M223.32,245.24c-.91-.35-1.69-.81-2.35-1.37-.09-.09-.13-.17-.13-.25,0-.07.03-.15.1-.24l.3-.38c.09-.09.17-.14.25-.14.07,0,.15.03.24.1.57.44,1.25.82,2.03,1.11.79.3,1.57.45,2.34.45.66,0,1.25-.12,1.78-.37.53-.25.94-.59,1.23-1.02.29-.44.44-.93.44-1.48s-.15-1-.46-1.35c-.31-.35-.72-.64-1.25-.86s-1.24-.46-2.15-.7c-2.78-.75-4.18-2.08-4.18-4.01,0-.63.16-1.23.49-1.79.33-.56.82-1.01,1.49-1.36.67-.35,1.48-.52,2.44-.52.73,0,1.47.13,2.22.39.75.26,1.4.62,1.95,1.08.09.06.13.14.13.24,0,.09-.04.17-.12.25l-.37.39c-.09.09-.17.13-.25.13-.07,0-.15-.03-.24-.1-.45-.34-.97-.61-1.56-.82-.59-.21-1.19-.31-1.8-.31-.67,0-1.23.11-1.69.34-.46.23-.81.52-1.04.89s-.34.77-.34,1.21c0,.66.26,1.21.79,1.65.53.44,1.41.83,2.65,1.18.94.26,1.74.55,2.39.86.65.31,1.17.72,1.58,1.24.41.52.61,1.17.61,1.96s-.2,1.45-.59,2.08c-.39.63-.95,1.13-1.67,1.51-.72.37-1.54.56-2.46.56-.97,0-1.91-.18-2.81-.53Z"/>
          <path class="cls-5" d="M242.55,244.79c-1.12-.65-2-1.54-2.66-2.67s-.98-2.36-.98-3.71.33-2.59.98-3.71c.65-1.13,1.54-2.02,2.66-2.67,1.12-.65,2.35-.98,3.69-.98.95,0,1.85.16,2.7.49.84.33,1.6.79,2.26,1.38.09.07.13.15.13.25,0,.08-.03.16-.1.25l-.31.4c-.08.1-.17.15-.26.15-.07,0-.15-.04-.24-.11-.56-.51-1.2-.9-1.9-1.17-.7-.27-1.45-.41-2.23-.41-1.09,0-2.09.27-3.02.82-.92.54-1.66,1.28-2.2,2.22s-.82,1.97-.82,3.09.27,2.15.82,3.08,1.28,1.66,2.2,2.2c.92.54,1.93.8,3.02.8.79,0,1.54-.13,2.24-.4.7-.27,1.34-.65,1.91-1.15.07-.07.15-.11.23-.11.09,0,.17.05.26.15l.31.4c.06.09.09.17.09.24,0,.08-.04.15-.11.23-.66.61-1.41,1.08-2.27,1.42-.85.33-1.76.5-2.72.5-1.34,0-2.57-.33-3.69-.98Z"/>
          <path class="cls-5" d="M256.79,244.79c-1.11-.65-2-1.54-2.65-2.67s-.99-2.35-.99-3.69.33-2.59.99-3.72,1.54-2.02,2.66-2.68c1.11-.65,2.32-.98,3.62-.98s2.51.33,3.62.98c1.11.65,2,1.55,2.65,2.68s.99,2.37.99,3.72-.33,2.57-.99,3.69-1.54,2.01-2.66,2.67-2.32.98-3.62.98-2.51-.33-3.62-.98ZM263.37,243.65c.9-.53,1.62-1.26,2.16-2.18.54-.92.8-1.94.8-3.06s-.27-2.13-.8-3.06c-.54-.93-1.26-1.66-2.16-2.2-.9-.54-1.88-.81-2.94-.81s-2.04.27-2.94.81c-.91.54-1.63,1.27-2.17,2.2-.54.93-.81,1.95-.81,3.06s.27,2.14.8,3.06c.54.92,1.26,1.65,2.17,2.18.91.53,1.89.8,2.96.8s2.03-.27,2.94-.8Z"/>
          <path class="cls-5" d="M288.47,231.68c.78.44,1.38,1.09,1.81,1.93.43.84.65,1.85.65,3v8.48c0,.24-.12.36-.35.36h-.64c-.11,0-.2-.03-.26-.1-.06-.06-.1-.15-.1-.26v-8.37c0-.86-.15-1.63-.46-2.3-.31-.67-.76-1.19-1.35-1.56-.59-.37-1.3-.56-2.11-.56-.71,0-1.38.2-2.01.6s-1.12.95-1.49,1.64c-.37.69-.56,1.46-.56,2.3v8.23c0,.24-.12.36-.34.36h-.64c-.11,0-.2-.03-.26-.1-.06-.06-.1-.15-.1-.26v-8.37c0-.86-.15-1.63-.46-2.3-.31-.67-.76-1.19-1.35-1.56s-1.29-.56-2.1-.56c-.72,0-1.39.2-2.01.6-.62.4-1.11.95-1.49,1.64-.37.69-.56,1.46-.56,2.3v8.25c0,.11-.03.2-.1.26-.06.06-.15.1-.26.1h-.64c-.23,0-.35-.12-.35-.36v-13.46c0-.23.12-.35.35-.35h.56c.24,0,.36.12.36.35v1.87c.47-.79,1.09-1.41,1.86-1.84.77-.44,1.58-.65,2.43-.65,1.11,0,2.08.28,2.9.83.82.55,1.42,1.33,1.78,2.35.26-.67.64-1.24,1.12-1.72s1.04-.84,1.64-1.09c.61-.25,1.23-.37,1.86-.37,1,0,1.89.22,2.67.67Z"/>
          <path class="cls-5" d="M305.18,232.03c1.05.65,1.87,1.54,2.48,2.67s.91,2.36.91,3.71-.3,2.58-.91,3.71c-.61,1.12-1.43,2.01-2.48,2.66-1.05.65-2.2.98-3.46.98s-2.35-.32-3.34-.96c-.99-.64-1.75-1.49-2.28-2.55v7.1c0,.23-.12.34-.36.34h-.64c-.23,0-.35-.12-.35-.34v-17.69c0-.23.12-.35.35-.35h.61c.24,0,.36.12.36.35v2.93c.55-1.07,1.31-1.93,2.3-2.56.98-.64,2.1-.96,3.36-.96s2.42.33,3.46.98ZM304.52,243.65c.84-.53,1.5-1.25,1.99-2.17.48-.92.73-1.94.73-3.06s-.24-2.15-.73-3.08c-.48-.92-1.15-1.65-1.99-2.19-.84-.54-1.78-.8-2.81-.8s-2,.27-2.86.8-1.54,1.27-2.04,2.2c-.5.93-.75,1.95-.75,3.07s.25,2.15.74,3.06c.5.92,1.18,1.64,2.04,2.17s1.82.79,2.88.79,1.97-.26,2.81-.79Z"/>
          <path class="cls-5" d="M323.69,231.3h.61c.24,0,.36.12.36.35v13.46c0,.11-.03.2-.1.26-.06.06-.15.1-.26.1h-.61c-.11,0-.2-.03-.26-.09-.06-.06-.09-.14-.09-.26v-2.97c-.35.71-.8,1.34-1.36,1.88-.56.54-1.21.96-1.94,1.27-.73.31-1.52.46-2.35.46-1.27,0-2.43-.33-3.47-.98-1.05-.65-1.87-1.54-2.48-2.66-.61-1.12-.91-2.36-.91-3.71s.3-2.59.91-3.71,1.44-2.01,2.49-2.67c1.05-.65,2.21-.98,3.47-.98s2.37.33,3.36.98c.99.65,1.74,1.51,2.27,2.58v-2.96c.03-.23.15-.35.37-.35ZM320.57,243.65c.86-.53,1.55-1.25,2.05-2.17.5-.92.75-1.94.75-3.06s-.25-2.14-.75-3.07c-.5-.93-1.18-1.66-2.05-2.2s-1.82-.8-2.87-.8-1.97.27-2.81.8c-.84.54-1.5,1.27-1.99,2.19-.48.92-.73,1.95-.73,3.08s.24,2.15.73,3.06c.48.92,1.14,1.64,1.98,2.17s1.77.79,2.8.79,2.01-.26,2.88-.79Z"/>
          <path class="cls-5" d="M338.35,231.74c.85.47,1.52,1.15,1.99,2.03.47.88.71,1.92.71,3.12v8.22c0,.24-.12.36-.35.36h-.67c-.11,0-.2-.03-.26-.1-.06-.06-.1-.15-.1-.26v-8.12c0-.96-.18-1.79-.55-2.49-.37-.7-.89-1.23-1.56-1.61-.67-.37-1.45-.56-2.33-.56-.82,0-1.61.21-2.39.62-.77.41-1.4.98-1.88,1.7s-.72,1.52-.72,2.4v8.04c0,.11-.03.2-.1.26-.06.06-.15.1-.26.1h-.64c-.23,0-.35-.12-.35-.36v-13.46c0-.23.12-.35.35-.35h.56c.24,0,.36.12.36.35l.02,2.27c.29-.51.7-.98,1.24-1.43.54-.44,1.16-.8,1.86-1.06s1.4-.4,2.12-.4c1.1,0,2.08.24,2.93.71Z"/>
          <path class="cls-5" d="M347.9,249.69h-.7c-.21,0-.31-.08-.31-.24,0-.05.01-.1.04-.17l1.57-3.84-5.56-13.73c-.02-.06-.04-.12-.04-.17,0-.16.1-.24.31-.24h.74c.2,0,.33.09.4.27l4.86,12.14,4.81-12.14c.07-.18.21-.27.4-.27h.75c.1,0,.18.02.24.07.06.04.08.1.08.18,0,.04-.01.09-.04.15l-7.15,17.71c-.07.18-.21.27-.4.27Z"/>
        </g>
        <path class="cls-5" d="M526.56,5.15c1.11.65,1.99,1.54,2.63,2.66s.97,2.34.97,3.66-.32,2.52-.97,3.64c-.65,1.13-1.53,2.02-2.64,2.69-1.12.67-2.35,1-3.7,1s-2.56-.33-3.67-.99c-1.11-.66-1.99-1.55-2.62-2.67-.64-1.12-.96-2.33-.96-3.63s.32-2.52.97-3.64c.65-1.12,1.52-2.02,2.63-2.69,1.11-.67,2.34-1,3.69-1s2.55.33,3.67.98ZM525.93,16.68c.93-.54,1.67-1.28,2.2-2.2s.81-1.93.81-3.02-.27-2.09-.8-3.01c-.53-.92-1.26-1.64-2.18-2.18-.92-.54-1.95-.81-3.06-.81s-2.14.27-3.07.82c-.93.54-1.66,1.28-2.19,2.2-.53.92-.8,1.93-.8,3.02s.26,2.09.8,3.01c.53.92,1.25,1.64,2.17,2.18.92.54,1.94.81,3.05.81s2.14-.27,3.07-.82ZM525.6,11.57c-.26.39-.64.69-1.14.89l1.68,2.43h-1.42l-1.35-2.19h-2.02v2.19h-1.23v-7.27h2.92c.95,0,1.67.22,2.18.65.51.43.76,1.05.76,1.85,0,.57-.13,1.06-.39,1.45ZM523.04,11.67c.56,0,1-.13,1.31-.4.32-.27.47-.64.47-1.13s-.16-.84-.47-1.1-.75-.39-1.31-.39h-1.7v3.01h1.7Z"/>
      </g>
    </g>
  </g>
</svg>